<svg id="eiwwtr3kvydo1" xmlns="http://www.w3.org/2000/svg" xmlns:xlink="http://www.w3.org/1999/xlink" viewBox="0 0 300 200" shape-rendering="geometricPrecision" text-rendering="geometricPrecision"><style><![CDATA[#eiwwtr3kvydo25 {animation: eiwwtr3kvydo25_c_o 3000ms linear infinite normal forwards}@keyframes eiwwtr3kvydo25_c_o { 0% {opacity: 1} 46.666667% {opacity: 1} 50% {opacity: 0} 96.666667% {opacity: 0} 100% {opacity: 1} }#eiwwtr3kvydo26 {animation: eiwwtr3kvydo26_c_o 3000ms linear infinite normal forwards}@keyframes eiwwtr3kvydo26_c_o { 0% {opacity: 1} 46.666667% {opacity: 1} 50% {opacity: 0} 96.666667% {opacity: 0} 100% {opacity: 1} }#eiwwtr3kvydo50 {animation: eiwwtr3kvydo50_c_o 3000ms linear infinite normal forwards}@keyframes eiwwtr3kvydo50_c_o { 0% {opacity: 0} 50% {opacity: 0} 53.333333% {opacity: 1} 96.666667% {opacity: 1} 100% {opacity: 0} }#eiwwtr3kvydo51 {animation: eiwwtr3kvydo51_c_o 3000ms linear infinite normal forwards}@keyframes eiwwtr3kvydo51_c_o { 0% {opacity: 0} 50% {opacity: 0} 53.333333% {opacity: 1} 96.666667% {opacity: 1} 100% {opacity: 0} }#eiwwtr3kvydo52 {animation: eiwwtr3kvydo52_c_o 3000ms linear infinite normal forwards}@keyframes eiwwtr3kvydo52_c_o { 0% {opacity: 0} 50% {opacity: 0} 53.333333% {opacity: 1} 96.666667% {opacity: 1} 100% {opacity: 0} }#eiwwtr3kvydo53 {animation: eiwwtr3kvydo53_c_o 3000ms linear infinite normal forwards}@keyframes eiwwtr3kvydo53_c_o { 0% {opacity: 0} 50% {opacity: 0} 53.333333% {opacity: 1} 96.666667% {opacity: 1} 100% {opacity: 0} }]]></style><defs><linearGradient id="eiwwtr3kvydo19-fill" x1="-12.124680" y1="-15.568410" x2="15.515320" y2="17.603430" spreadMethod="pad" gradientUnits="userSpaceOnUse"><stop id="eiwwtr3kvydo19-fill-0" offset="0%" stop-color="rgb(32,83,0)"/><stop id="eiwwtr3kvydo19-fill-1" offset="100%" stop-color="rgb(86,220,0)"/></linearGradient><linearGradient id="eiwwtr3kvydo25-fill" x1="-16.951499" y1="-17.570775" x2="18.976179" y2="12.230683" spreadMethod="pad" gradientUnits="userSpaceOnUse"><stop id="eiwwtr3kvydo25-fill-0" offset="0%" stop-color="rgb(156,8,0)"/><stop id="eiwwtr3kvydo25-fill-1" offset="100%" stop-color="rgb(255,85,61)"/></linearGradient><linearGradient id="eiwwtr3kvydo39-fill" x1="163.282567" y1="8.788410" x2="0.000037" y2="8.788400" spreadMethod="pad" gradientUnits="userSpaceOnUse"><stop id="eiwwtr3kvydo39-fill-0" offset="0%" stop-color="rgb(23,7,0)"/><stop id="eiwwtr3kvydo39-fill-1" offset="100%" stop-color="rgb(162,49,9)"/></linearGradient><linearGradient id="eiwwtr3kvydo40-fill" x1="163.282567" y1="8.788410" x2="0.000037" y2="8.788400" spreadMethod="pad" gradientUnits="userSpaceOnUse"><stop id="eiwwtr3kvydo40-fill-0" offset="0%" stop-color="rgb(23,7,0)"/><stop id="eiwwtr3kvydo40-fill-1" offset="100%" stop-color="rgb(162,49,9)"/></linearGradient><linearGradient id="eiwwtr3kvydo41-fill" x1="-0.000022" y1="24.893880" x2="155.985768" y2="24.893880" spreadMethod="pad" gradientUnits="userSpaceOnUse"><stop id="eiwwtr3kvydo41-fill-0" offset="0%" stop-color="rgb(23,7,0)"/><stop id="eiwwtr3kvydo41-fill-1" offset="100%" stop-color="rgb(162,49,9)"/></linearGradient><radialGradient id="eiwwtr3kvydo50-fill" cx="0" cy="0" r="0.870054" spreadMethod="pad" gradientUnits="objectBoundingBox" gradientTransform="matrix(0.97434684811088 0.22505159314341 -0.25116060263464 1.08738417768387 0.31279097765463 0.50000000000000)"><stop id="eiwwtr3kvydo50-fill-0" offset="0%" stop-color="rgb(228,228,228)"/><stop id="eiwwtr3kvydo50-fill-1" offset="100%" stop-color="rgb(162,49,9)"/></radialGradient><radialGradient id="eiwwtr3kvydo51-fill" cx="0" cy="0" r="1.294565" spreadMethod="pad" gradientUnits="objectBoundingBox" gradientTransform="matrix(1 0 0 1 0.64178858845311 0.49162218535779)"><stop id="eiwwtr3kvydo51-fill-0" offset="0%" stop-color="rgb(243,243,243)"/><stop id="eiwwtr3kvydo51-fill-1" offset="100%" stop-color="rgb(162,49,9)"/></radialGradient><linearGradient id="eiwwtr3kvydo52-fill" x1="81.917497" y1="116.094113" x2="82.623765" y2="144.922207" spreadMethod="pad" gradientUnits="userSpaceOnUse"><stop id="eiwwtr3kvydo52-fill-0" offset="0%" stop-color="rgb(204,159,159)"/><stop id="eiwwtr3kvydo52-fill-1" offset="100%" stop-color="rgb(162,49,9)"/></linearGradient><linearGradient id="eiwwtr3kvydo53-fill" x1="75.562000" y1="109.648750" x2="76.596419" y2="144.991465" spreadMethod="pad" gradientUnits="userSpaceOnUse"><stop id="eiwwtr3kvydo53-fill-0" offset="0%" stop-color="rgb(204,159,159)"/><stop id="eiwwtr3kvydo53-fill-1" offset="100%" stop-color="rgb(162,49,9)"/></linearGradient><linearGradient id="eiwwtr3kvydo56-fill" x1="0" y1="0.500000" x2="1" y2="0.448096" spreadMethod="pad" gradientUnits="objectBoundingBox"><stop id="eiwwtr3kvydo56-fill-0" offset="0%" stop-color="rgb(0,129,112)"/><stop id="eiwwtr3kvydo56-fill-1" offset="100%" stop-color="rgb(0,129,112)"/></linearGradient><linearGradient id="eiwwtr3kvydo57-fill" x1="0" y1="0.500000" x2="1" y2="0.448096" spreadMethod="pad" gradientUnits="objectBoundingBox"><stop id="eiwwtr3kvydo57-fill-0" offset="0%" stop-color="rgb(0,129,112)"/><stop id="eiwwtr3kvydo57-fill-1" offset="100%" stop-color="rgb(0,129,112)"/></linearGradient></defs><g id="eiwwtr3kvydo2"><rect id="eiwwtr3kvydo3" width="28.435900" height="6.563560" rx="1.524063" ry="1.524063" transform="matrix(1 0 0 1 13.73330000000000 142.99000000000001)" fill="rgb(122,59,0)" stroke="none" stroke-width="0.263192"/><rect id="eiwwtr3kvydo4" width="28.435900" height="6.563560" rx="1.524063" ry="1.524063" transform="matrix(1 0 0 1 13.73330000000000 142.99000000000001)" fill="rgb(122,59,0)" stroke="none" stroke-width="0.263192"/><path id="eiwwtr3kvydo5" d="M10.517294,125.441850C10.424714,124.471200,10.962764,123.671570,11.319103,122.806170C11.452799,122.449660,11.586495,122.093150,11.720190,121.736640C11.764740,121.424820,11.747890,121.097820,11.853825,120.801190C11.859725,120.784590,12.922540,118.935860,12.928397,118.924820C13.343465,118.142430,13.708000,117.219610,14.268574,116.512660C14.695360,115.974440,15.218724,115.518780,15.656413,114.989390C15.833785,114.774860,17.518979,112.596200,17.193531,112.525310C16.268012,112.323710,14.920344,115.868830,14.163764,116.247110C13.677345,116.490320,13.487633,116.675920,13.072949,117.090600C13.045079,117.118500,12.571720,117.613680,12.610513,117.388780C12.886581,115.788280,13.773253,114.401250,14.043008,112.773830C14.386878,110.699290,14.452158,108.540260,14.452158,106.444110C14.452158,106.403810,14.452158,106.524710,14.452158,106.564940C14.452158,106.734590,14.502898,106.912000,14.452158,107.073870C13.312965,110.708240,14.446558,105.473790,13.640285,109.938390C13.426254,111.123570,13.301883,111.316930,13.237015,112.484550C13.197075,113.203530,13.321475,114.181380,13.103381,114.889980C13.037811,115.103020,12.812763,115.231420,12.702179,115.424960C12.646779,115.521960,12.404009,116.637410,12.203833,116.585320C10.856522,116.234720,10.433619,111.485270,10.363060,110.358960C10.343470,110.046190,10.413000,109.728190,10.363060,109.418820C10.292270,108.980270,9.940456,108.498770,9.940456,108.034180C9.940456,107.994480,9.944056,108.113680,9.940456,108.153150C9.903266,108.566380,9.903616,108.985820,9.818260,109.391860C9.706635,109.922870,9.459398,110.419650,9.352195,110.951580C9.160964,111.900430,9.217043,112.887490,9.217043,113.849510C9.217043,113.938310,9.172203,114.510250,8.882858,114.206830C8.121177,113.408090,8.517635,111.608220,8.466024,110.636320C8.425014,109.863960,8.052693,107.954840,8.316199,107.164330C8.398339,106.917920,8.634967,106.742560,8.717103,106.496150C8.830459,106.156090,8.601709,105.698380,8.717103,105.358790C8.796593,105.124860,8.954350,104.816080,8.984373,104.575910C9.005203,104.409310,8.604645,104.578910,8.498727,104.709550C8.310221,104.941410,8.183628,105.225130,8.097823,105.511360C7.453835,107.659600,8.203757,105.772380,7.694219,108.365660C7.640740,108.637840,7.230292,109.215310,7.159680,109.568370C7.136709,109.683230,7.216729,111.317540,7.031791,111.166240C6.631130,110.838470,6.685345,110.188700,6.563278,109.685640C5.813690,106.596470,5.835601,104.144080,6.221056,101.013340C6.225836,100.974540,6.221056,101.091540,6.221056,101.130640C6.221056,101.390390,6.283055,101.657650,6.221056,101.909890C5.863320,103.365300,5.302503,104.388710,5.100392,105.800110C5.023879,106.334420,5.045915,106.879940,4.966757,107.413860C4.691041,109.273580,4.174590,111.559630,4.794522,113.355230C4.861064,113.547960,4.432800,113.138410,4.321185,112.967770C3.445651,111.629260,2.683930,110.157130,1.969245,108.727760C1.459275,107.707820,1.493468,110.489550,1.453042,110.863860C1.354284,111.778280,1.126975,110.693220,0.943645,110.379610C0.923203,110.344610,0.943645,110.460610,0.943645,110.501130C0.943645,110.761980,0.943645,111.022840,0.943645,111.283690C0.943645,113.923150,0.875898,112.009980,1.085293,114.124680C1.119498,114.470110,1.258976,114.657980,0.964933,114.540370C0.811346,114.478970,0.619253,114.514470,0.483496,114.420010C0.116430,114.164450,0.279941,113.841260,0.088893,113.509780C-0.338738,112.767810,-0.312011,113.232320,-0.312011,112.841610C-0.312011,112.803410,-0.312011,112.918110,-0.312011,112.956280C-0.312011,113.659800,-0.445646,114.313850,-0.445646,115.002770C-0.445646,115.637110,-0.420974,114.691300,-0.579281,115.635170C-0.595324,115.730870,-0.523290,116.156980,-0.579281,116.298310C-0.766518,116.770940,-1.411360,115.510760,-1.978612,116.269510C-2.258522,116.643920,-1.784194,118.493430,-1.711343,118.930540C-1.599971,119.598770,-1.724169,120.271150,-1.577708,120.929920C-1.432809,121.219720,-1.242145,121.538000,-1.176584,121.865800C-0.985469,122.821370,-1.042949,123.819710,-1.042949,124.805770C-1.042949,125.149720,-1.185583,125.976010,-0.910974,126.252380C-0.699956,126.464750,2.360753,126.379690,2.831668,126.379690C4.205382,126.379690,7.076723,126.655630,8.578493,126.246050C9.217491,126.071780,9.358364,125.900060,9.896607,125.715660" fill="rgb(43,122,0)" stroke="none" stroke-width="0.264583"/><path id="eiwwtr3kvydo6" d="M14.589881,124.892490C13.591241,124.958890,12.602489,125.083640,11.593963,125.091660C11.453120,125.092530,11.759793,124.979830,11.782951,124.914830C11.902417,124.579480,11.829541,124.452170,11.971939,124.119070C12.044989,123.948190,12.414532,123.833570,12.545836,123.670500C12.741689,123.427250,12.822130,123.100850,13.116267,122.871500C13.441001,122.618290,13.535395,122.792800,13.683231,122.517830C13.969823,121.984840,14.247469,121.706860,14.594835,121.219320C14.623005,121.179820,14.720827,121.160420,14.783823,121.130920C14.846823,121.072020,14.938647,121.018020,14.972812,120.954080C15.018652,120.868280,14.867980,120.762400,14.972812,120.688830C15.093553,120.604130,15.720952,120.397780,15.217288,120.272700C14.792227,120.167150,12.373323,121.136820,12.098166,121.382970C11.972174,121.500860,11.846182,121.618740,11.720190,121.736640C11.657190,121.766040,11.573810,121.788440,11.531202,121.825040C11.506002,121.846740,11.580012,121.908240,11.531202,121.899040C11.280781,121.851440,11.400810,121.194670,11.432032,121.151500C10.774767,120.736110,11.858454,120.814450,11.996649,120.630910C12.188957,120.375510,12.183278,119.692750,12.183278,119.414810C12.183278,119.297900,12.057716,119.058050,12.183278,118.954140C12.223308,118.920940,12.437187,118.873440,12.355841,118.873440C11.111329,118.872570,9.447293,120.142750,9.026184,120.632810C8.928437,120.746550,9.063565,121.020080,8.648207,121.071540C8.490230,121.091040,8.648207,120.918630,8.648207,120.842160C8.648207,120.507070,8.459219,120.308150,8.459219,119.963500C8.459219,118.930030,8.746201,118.097120,7.588760,117.185340C7.498612,117.114340,7.379909,117.038700,7.214262,117.010130C7.140921,116.997530,7.025273,117.338690,7.025273,117.671340C7.025273,117.909610,6.940286,119.803430,6.649656,119.961330C6.575021,120.001930,6.678346,119.852590,6.649656,119.800790C6.551042,119.622740,6.385256,119.454180,6.271282,119.278150C6.029472,118.904670,5.956580,118.425140,5.893306,118.040310C5.818802,117.587170,5.503368,114.613330,6.772982,114.445720C7.255915,114.382020,6.359530,114.615020,6.067062,114.820270C5.559671,115.176340,5.449832,115.551120,4.744146,115.881270C4.644540,115.927870,4.465775,115.923070,4.366169,115.969670C4.191514,116.051370,3.094882,117.175160,3.043253,117.295920C2.933176,117.553420,2.964342,117.657350,2.854265,117.914840C2.626247,118.448230,2.764369,117.843140,2.476289,118.180100C2.252298,118.442080,2.347589,118.832160,1.913771,119.056820C1.884707,119.071920,1.463666,119.386660,1.402129,119.403370C1.030524,119.504300,1.411539,118.991460,1.232404,118.767970C0.675131,118.072730,0.665440,118.493640,0.665440,117.706960C0.665440,117.512010,0.828802,117.219000,0.665440,117.043870C0.645665,117.022670,0.585963,116.974970,0.560564,116.994770C0.374810,117.139900,0.370321,117.379740,0.182588,117.552500C-0.014237,117.733610,-0.375655,117.905490,-0.571017,118.080800C-0.648257,118.150100,-0.560519,118.488470,-0.571017,118.508390C-0.650885,118.659960,-0.933826,118.871980,-1.119375,119.019810C-1.225641,119.104410,-0.793659,119.407180,-0.762548,119.498530C-0.762548,120.422390,-0.842233,119.363260,-0.573560,120.117450C-0.280952,120.938820,-0.573560,121.889090,-0.573560,122.727890C-0.573560,122.895900,-0.630545,122.886440,-0.760184,123.066260C-0.927066,123.297740,-0.857071,124.534360,-0.608327,124.749910C-0.522365,124.824410,-0.713689,124.987580,-0.608327,125.054580C-0.512551,125.115480,-0.322815,125.144280,-0.265509,125.214960C-0.080308,125.443430,-0.481935,125.536550,0.027743,125.674980C0.376312,125.769680,0.998808,125.800000,1.421404,125.833150C2.039417,125.881650,10.735927,126.041630,11.428762,125.921550C11.722621,125.870550,11.302718,125.489630,11.670661,125.393700C12.576083,125.157630,13.622478,125.066630,14.589883,124.892510" fill="rgb(70,194,2)" stroke="none" stroke-width="0.180972"/><path id="eiwwtr3kvydo7" d="M-0.882242,124.892530L14.589883,124.892530L2.057143,135.658760L14.589883,153.841680L-0.882242,153.841680Z" fill="rgb(162,49,9)" stroke="rgb(168,51,3)" stroke-width="0.178342"/><path id="eiwwtr3kvydo8" d="M-0.882242,124.892530L14.589883,124.892530L2.057143,135.658760L14.589883,153.841680L-0.882242,153.841680Z" fill="rgb(162,49,9)" stroke="rgb(168,51,3)" stroke-width="0.178342"/><g id="eiwwtr3kvydo9"><path id="eiwwtr3kvydo10" d="M80.098754,147.740210L85.778659,146.408770L85.778659,113.705050L80.098754,117.356690Z" fill="rgb(162,49,9)" fill-rule="evenodd" stroke="rgb(112,34,0)" stroke-width="0.292916" stroke-linejoin="round"/><path id="eiwwtr3kvydo11" d="M73.907965,147.072320L73.907965,115.998320L80.098754,117.356690L80.098754,147.740210Z" fill="rgb(162,49,9)" fill-rule="evenodd" stroke="rgb(112,34,0)" stroke-width="0.292916" stroke-linejoin="round"/><path id="eiwwtr3kvydo12" d="M73.907965,115.998320L79.242711,112.150940L85.778659,113.705050L80.098754,117.356690Z" fill="rgb(162,49,9)" fill-rule="evenodd" stroke="rgb(112,34,0)" stroke-width="0.292916" stroke-linejoin="round"/><path id="eiwwtr3kvydo13" d="M73.907965,147.072320L79.242711,145.656000L85.778659,146.408770L80.098754,147.740210Z" fill="rgb(162,49,9)" fill-rule="evenodd" stroke="rgb(112,34,0)" stroke-width="0.292916" stroke-linejoin="round"/><path id="eiwwtr3kvydo14" d="M79.242711,145.656000L79.242711,112.150940L85.778659,113.705050L85.778659,146.408770Z" fill="rgb(162,49,9)" fill-rule="evenodd" stroke="rgb(112,34,0)" stroke-width="0.292916" stroke-linejoin="round"/><path id="eiwwtr3kvydo15" d="M73.907965,147.072320L79.242711,145.656000L79.242711,112.150940L73.907965,115.998320Z" fill="rgb(162,49,9)" fill-rule="evenodd" stroke="rgb(112,34,0)" stroke-width="0.292916" stroke-linejoin="round"/></g><rect id="eiwwtr3kvydo16" width="93.222900" height="153.752000" rx="11.735717" ry="11.735717" transform="matrix(1 0 0 1 184.43100000000001 78.16350000000000)" fill="rgb(0,0,0)" fill-opacity="0.986157" stroke="none" stroke-width="0.279675"/><rect id="eiwwtr3kvydo17" width="81.242000" height="137.169000" rx="6.766188" ry="6.766188" transform="matrix(1 0 0 1 190.41800000000001 86.44440000000000)" fill="rgb(255,255,255)" stroke="none" stroke-width="0.293626"/><g id="eiwwtr3kvydo18" transform="matrix(1 0 0 1 6.98798000000000 -9.95310000000000)"><circle id="eiwwtr3kvydo19" r="22.610200" transform="matrix(1 0 0 1 223.83400000000000 137.74900000000000)" fill="url(#eiwwtr3kvydo19-fill)" stroke="none" stroke-width="0.264583"/><text id="eiwwtr3kvydo20" dx="0" dy="0" font-family="sans-serif" font-size="10.583300" transform="matrix(1.74605000000000 0 0 1.81042000000000 -165.67400000000001 -110.23699999999999)" fill="rgb(215,255,189)" stroke="none" stroke-width="1"><tspan id="eiwwtr3kvydo21" x="214.91406" y="140.76608" font-family="sans-serif" font-size="10.583300" fill="rgb(215,255,189)" stroke="none" stroke-width="1"><![CDATA[ON]]></tspan></text></g><g id="eiwwtr3kvydo22" transform="matrix(1 0 0 1 304.90499999999997 94.63170000000000)"><g id="eiwwtr3kvydo23" transform="matrix(1 0 0 1 -83.91260000000000 -4.63831000000000)"><g id="eiwwtr3kvydo24"><circle id="eiwwtr3kvydo25" r="22.610200" transform="matrix(1 0 0 1 9.82957999999999 37.80250999999988)" fill="url(#eiwwtr3kvydo25-fill)" stroke="none" stroke-width="0.264583"/><text id="eiwwtr3kvydo26" dx="0" dy="0" font-family="sans-serif" font-size="10.583300" transform="matrix(1.74605000000000 0 0 1.81042000000000 -383.89105398500010 -210.42304468500024)" fill="rgb(166,21,0)" stroke="none" stroke-width="1"><tspan id="eiwwtr3kvydo27" x="214.91406" y="140.76608" font-family="sans-serif" font-size="10.583300" fill="rgb(255,255,255)" fill-opacity="0.999906" stroke="none" stroke-width="1"><![CDATA[OFF]]></tspan></text><text id="eiwwtr3kvydo28" dx="0" dy="0" font-family="sans-serif" font-size="10.583300" transform="matrix(1 0 0 1 265.68673999999999 159.73068000000001)" fill="rgb(0,0,0)" stroke="none" stroke-width="0.264583"><tspan id="eiwwtr3kvydo29" x="0" y="0" font-family="sans-serif" font-size="10.583300" fill="rgb(0,0,0)" stroke="none" stroke-width="0.264583"/></text></g></g></g><text id="eiwwtr3kvydo30" dx="0" dy="0" font-family="sans-serif" font-size="5.820830" transform="matrix(0.87527400000000 0 0 1 33.95220000000000 2.22867000000000)" fill="rgb(0,0,0)" stroke="none" stroke-width="1"><tspan id="eiwwtr3kvydo31" x="183.81836" y="173.27312" font-family="sans-serif" font-size="5.820830" fill="rgb(0,0,0)" stroke="none" stroke-width="1"><![CDATA[Room temperature: 22 °C ]]></tspan></text><text id="eiwwtr3kvydo32" dx="0" dy="0" font-family="sans-serif" font-size="10.583300" transform="matrix(1 0 0 1 249.31345999999999 178.13068999999999)" fill="rgb(0,0,0)" stroke="none" stroke-width="0.264583"><tspan id="eiwwtr3kvydo33" x="0" y="0" font-family="sans-serif" font-size="10.583300" fill="rgb(0,0,0)" stroke="none" stroke-width="0.264583"/></text><text id="eiwwtr3kvydo34" dx="0" dy="0" font-family="sans-serif" font-size="5.820830" transform="matrix(0.92874900000000 0 0 1 24.20450000000000 8.35231000000000)" fill="rgb(0,0,0)" stroke="none" stroke-width="1"><tspan id="eiwwtr3kvydo35" x="183.81836" y="173.27312" font-family="sans-serif" font-size="5.820830" fill="rgb(0,0,0)" stroke="none" stroke-width="1"><![CDATA[Humidity: 55%]]></tspan></text><text id="eiwwtr3kvydo36" dx="0" dy="0" font-family="sans-serif" font-size="10.583300" transform="matrix(1 0 0 1 202.80941999999999 103.20039000000000)" fill="rgb(0,0,0)" stroke="none" stroke-width="0.264583"><tspan id="eiwwtr3kvydo37" x="0" y="0" font-family="sans-serif" font-size="10.583300" fill="rgb(0,0,0)" stroke="none" stroke-width="0.264583"/></text><rect id="eiwwtr3kvydo38" width="25.296200" height="4.838230" rx="0" ry="0" transform="matrix(1 0 0 1 66.98650000000001 145.25299999999999)" fill="rgb(141,52,1)" stroke="rgb(0,0,0)" stroke-width="0.228898"/><rect id="eiwwtr3kvydo39" width="163.283000" height="8.788310" rx="0" ry="0" transform="matrix(1 0 0 1 -2.37506000000000 149.10599999999999)" fill="url(#eiwwtr3kvydo39-fill)" stroke="rgb(0,0,0)" stroke-width="0.277990"/><rect id="eiwwtr3kvydo40" width="163.283000" height="8.788310" rx="0" ry="0" transform="matrix(1 0 0 1 -2.37506000000000 149.10599999999999)" fill="url(#eiwwtr3kvydo40-fill)" stroke="rgb(0,0,0)" stroke-width="0.277990"/><rect id="eiwwtr3kvydo41" width="155.985000" height="49.787000" rx="0" ry="0" transform="matrix(1 0 0 1 -2.41701000000000 157.89400000000001)" fill="url(#eiwwtr3kvydo41-fill)" stroke="none" stroke-width="0.280910"/><g id="eiwwtr3kvydo42"><path id="eiwwtr3kvydo43" d="M82.142541,78.342624L104.378570,71.309558L104.378570,121.226460L82.142541,116.506240Z" fill="rgb(225,225,225)" fill-rule="evenodd" stroke="rgb(112,34,0)" stroke-width="1.156860" stroke-linejoin="round"/><path id="eiwwtr3kvydo44" d="M60.280811,77.558503L60.280811,118.533800L82.142541,116.506240L82.142541,78.342624Z" fill="rgb(225,225,225)" fill-rule="evenodd" stroke="rgb(112,34,0)" stroke-width="1.156860" stroke-linejoin="round"/><path id="eiwwtr3kvydo45" d="M60.280811,118.533800L77.312697,124.405450L104.378570,121.226460L82.142541,116.506240Z" fill="rgb(225,225,225)" fill-rule="evenodd" stroke="rgb(112,34,0)" stroke-width="1.156860" stroke-linejoin="round"/><path id="eiwwtr3kvydo46" d="M60.280811,77.558503L77.312697,69.566670L104.378570,71.309558L82.142541,78.342624Z" fill="rgb(225,225,225)" fill-rule="evenodd" stroke="rgb(112,34,0)" stroke-width="1.156860" stroke-linejoin="round"/><path id="eiwwtr3kvydo47" d="M77.312697,69.566670L77.312697,124.405450L104.378570,121.226460L104.378570,71.309558Z" fill="rgb(225,225,225)" fill-rule="evenodd" stroke="rgb(112,34,0)" stroke-width="1.156860" stroke-linejoin="round"/><path id="eiwwtr3kvydo48" d="M60.280811,77.558503L77.312697,69.566670L77.312697,124.405450L60.280811,118.533800Z" fill="rgb(225,225,225)" fill-rule="evenodd" stroke="rgb(112,34,0)" stroke-width="1.156860" stroke-linejoin="round"/></g><path id="eiwwtr3kvydo49" d="M12.995057,157.894390L153.568410,157.894390" fill="none" stroke="rgb(6,0,0)" stroke-width="0.264583"/><path id="eiwwtr3kvydo50" d="M77.312693,69.566676L104.378560,71.309564L104.378560,121.226460L77.312693,124.405450Z" transform="matrix(1 0 0 1 0.00000699999990 -0.71805400000000)" opacity="0" fill="url(#eiwwtr3kvydo50-fill)" stroke="rgb(168,51,3)" stroke-width="0.305131"/><path id="eiwwtr3kvydo51" d="M60.280804,77.491550L77.003360,69.566676L77.003358,123.946016L60.280804,118.123567Z" transform="matrix(1 0 0 1 0 -0.25861999999999)" opacity="0" fill="url(#eiwwtr3kvydo51-fill)" stroke="rgb(168,51,3)" stroke-width="0.305131"/><path id="eiwwtr3kvydo52" d="M79.486804,124.786720L85.536602,124.146820L85.536588,144.997860L79.507131,144.967060Z" transform="matrix(1 0 0 1 0.14779600000000 0.03980999999999)" opacity="0" fill="url(#eiwwtr3kvydo52-fill)" stroke="rgb(168,51,3)" stroke-width="0.305131"/><path id="eiwwtr3kvydo53" d="M74.150104,124.074300L77.265654,125.133580L79.012998,124.875540L79.064838,145.037670L74.120017,144.980970Z" opacity="0" fill="url(#eiwwtr3kvydo53-fill)" stroke="rgb(168,51,3)" stroke-width="0.305131"/><rect id="eiwwtr3kvydo54" width="26.640700" height="4.354260" rx="0" ry="0" transform="matrix(1 0 0 1 15.65780000000000 143.94800000000001)" fill="rgb(187,187,187)" stroke="none" stroke-width="0.274338"/><rect id="eiwwtr3kvydo55" width="26.640700" height="4.354260" rx="0" ry="0" transform="matrix(1 0 0 1 15.65780000000000 143.94800000000001)" fill="rgb(187,187,187)" stroke="none" stroke-width="0.274338"/><rect id="eiwwtr3kvydo56" width="28.435900" height="6.563560" rx="1.524063" ry="1.524063" transform="matrix(1 0 0 1 13.73330000000000 136.42599999999999)" fill="url(#eiwwtr3kvydo56-fill)" stroke="none" stroke-width="0.263192"/><rect id="eiwwtr3kvydo57" width="28.435900" height="6.563560" rx="1.524063" ry="1.524063" transform="matrix(1 0 0 1 13.73330000000000 136.42599999999999)" fill="url(#eiwwtr3kvydo57-fill)" stroke="none" stroke-width="0.263192"/><rect id="eiwwtr3kvydo58" width="26.640700" height="4.354260" rx="0" ry="0" transform="matrix(1 0 0 1 15.65780000000000 137.38499999999999)" fill="rgb(187,187,187)" stroke="none" stroke-width="0.274338"/><rect id="eiwwtr3kvydo59" width="26.640700" height="4.354260" rx="0" ry="0" transform="matrix(1 0 0 1 15.65780000000000 137.38499999999999)" fill="rgb(187,187,187)" stroke="none" stroke-width="0.274338"/></g></svg>